<svg width="46" height="54" viewBox="0 0 46 54" fill="none" xmlns="http://www.w3.org/2000/svg">
<g clip-path="url(#clip0_6222_7189)">
<path d="M44.3071 15.7295C45.0168 15.9844 45.1968 16.5749 45.1956 17.3146C45.1843 24.0817 45.1775 30.8489 45.1753 37.616C45.1769 37.6449 45.1803 37.6737 45.1854 37.7023C45.1124 37.8469 45.1882 38.0147 45.1249 38.1609C44.9762 38.9567 44.7304 39.7317 44.3929 40.469C43.7733 41.7129 42.8032 42.7532 41.5996 43.4645C39.6541 44.6704 37.7178 45.8938 35.7783 47.1111C33.7456 48.387 31.7131 49.6633 29.6808 50.9401C28.3786 51.7545 27.1004 52.6149 25.7634 53.3631C25.58 53.4029 25.3897 53.3995 25.2079 53.353C25.0107 53.2925 24.8356 53.1765 24.7041 53.0191C24.5726 52.8617 24.4903 52.6698 24.4673 52.4669C24.4152 51.902 24.4479 51.3356 24.4463 50.77C24.4411 48.9248 24.4452 47.0797 24.4429 45.2345C24.4629 45.0761 24.452 44.9153 24.4109 44.761C24.4189 44.6022 24.4341 44.4434 24.4339 44.2846C24.4245 39.2119 24.4217 34.1391 24.3933 29.0665C24.3639 28.7808 24.4204 28.4928 24.5557 28.2386C24.6909 27.9844 24.8991 27.7754 25.1539 27.6376C30.7985 24.0734 36.4218 20.4692 42.0488 16.8721C42.628 16.4278 43.2524 16.0442 43.9118 15.7275C44.0405 15.6867 44.1789 15.6874 44.3071 15.7295Z" fill="#FEB000"/>
<path d="M3.52897 16.9756C3.73739 17.1606 3.97728 17.3077 4.23755 17.41C4.37301 17.4295 4.50232 17.4789 4.61596 17.5543C4.7296 17.6298 4.82469 17.7295 4.89422 17.8461C4.92916 17.8947 4.97418 17.9355 5.02627 17.9656C5.07837 17.9957 5.13635 18.0145 5.19637 18.0208C5.58051 18.1253 5.92157 18.347 6.17109 18.6541C6.26623 18.7799 6.40622 18.8651 6.56261 18.8925C6.69824 18.9132 6.8276 18.9631 6.94148 19.0388C7.05537 19.1145 7.15099 19.2142 7.22153 19.3306C7.42984 19.5161 7.67009 19.6632 7.9309 19.765C8.06613 19.7849 8.19516 19.8345 8.30859 19.91C8.42203 19.9855 8.517 20.0851 8.58662 20.2015C8.62147 20.2505 8.66664 20.2914 8.71904 20.3215C8.77143 20.3516 8.8298 20.3701 8.89011 20.3757C9.12892 20.4879 9.4121 20.5213 9.54913 20.8142C9.75754 20.9991 9.99737 21.1462 10.2575 21.2486C10.3931 21.2679 10.5226 21.3171 10.6363 21.3927C10.75 21.4683 10.845 21.5682 10.9143 21.685C11.1796 21.9044 11.4732 22.0881 11.7873 22.2312C11.8737 22.2283 11.9589 22.2518 12.0312 22.2986C12.1035 22.3454 12.1594 22.4132 12.1913 22.4926C12.2863 22.6185 12.4264 22.7037 12.5828 22.7309C12.7184 22.7516 12.8478 22.8016 12.9617 22.8773C13.0756 22.953 13.1712 23.0526 13.2417 23.169C13.4498 23.3545 13.6897 23.5018 13.9501 23.6039C14.0856 23.6234 14.2149 23.6727 14.3285 23.7482C14.4422 23.8236 14.5373 23.9233 14.6068 24.0399C14.6419 24.0885 14.6869 24.1291 14.739 24.1592C14.791 24.1893 14.849 24.2082 14.9089 24.2146C15.2928 24.3196 15.6337 24.5408 15.8839 24.8472C15.9787 24.9737 16.1192 25.0593 16.2762 25.086C16.4115 25.1072 16.5405 25.1573 16.6542 25.233C16.7679 25.3086 16.8635 25.4079 16.9343 25.5238C17.1997 25.7432 17.4933 25.9267 17.8075 26.0697C17.8939 26.0666 17.9792 26.0902 18.0515 26.1371C18.1238 26.184 18.1797 26.2519 18.2114 26.3315C18.3066 26.457 18.4465 26.542 18.6027 26.5695C18.7385 26.5899 18.868 26.6398 18.982 26.7156C19.096 26.7915 19.1915 26.8913 19.2617 27.0081C19.4702 27.193 19.7101 27.34 19.9704 27.4423C20.1068 27.4605 20.2371 27.5102 20.3507 27.5872C20.4642 27.6642 20.558 27.7665 20.6243 27.8859C20.9053 28.2139 21.0486 28.6359 21.0249 29.0651C21.025 31.0228 21.0371 32.9805 21.0449 34.9382C21.0748 35.0653 21.0831 35.1964 21.0694 35.3263C21.0704 40.9405 21.0704 46.5546 21.0693 52.1688C21.0853 52.2984 21.0756 52.4298 21.0407 52.5556C20.8959 52.897 20.6368 53.1788 20.3069 53.3538C20.1242 53.4027 19.9317 53.4028 19.749 53.3541C19.2003 53.1347 18.685 52.841 18.2181 52.4812C16.9308 51.717 15.672 50.896 14.4044 50.0927C13.0914 49.2606 11.7851 48.416 10.4693 47.5891C8.84495 46.5682 7.20793 45.571 5.58809 44.5419C4.66242 44.0042 3.76699 43.4172 2.90575 42.7834C2.02973 42.0559 1.35141 41.1235 0.932418 40.0708C0.625687 39.3833 0.441277 38.6487 0.387313 37.8991C0.358845 37.7716 0.350971 37.6405 0.363982 37.5106C0.363063 30.6759 0.36309 23.8413 0.364062 17.0068C0.34988 16.877 0.358454 16.7457 0.389405 16.6188C0.421368 16.4615 0.491137 16.3142 0.592817 16.1892C0.694498 16.0643 0.825102 15.9654 0.973595 15.9008C1.12209 15.8363 1.2841 15.8081 1.44595 15.8185C1.6078 15.829 1.76473 15.8778 1.90348 15.9609C2.26481 16.1688 2.61313 16.4034 2.96731 16.6259C3.08475 16.6259 3.1998 16.6587 3.29919 16.7206C3.39857 16.7825 3.47823 16.8709 3.52897 16.9756Z" fill="#FE005F"/>
<path d="M17.1001 21.4255L16.3877 20.9384C16.0938 20.963 15.9544 20.6787 15.7355 20.5532L15.1902 20.1834C14.8732 20.0989 14.5883 19.9241 14.371 19.6809L13.824 19.3118C13.5586 19.2646 13.3223 19.1169 13.1653 18.9001L12.7378 18.6298C12.376 18.5172 12.052 18.3092 11.8007 18.0283C11.6276 17.9483 11.4688 17.8408 11.3309 17.7101C11.0367 17.7355 10.8974 17.4507 10.6785 17.3253L9.9659 16.8394C9.67257 16.8622 9.53282 16.5788 9.31396 16.4532L8.76731 16.0839C8.50179 16.037 8.26531 15.8893 8.10833 15.6724L7.23584 15.0982C7.13559 15.0915 7.03845 15.061 6.95275 15.0091C6.86704 14.9573 6.79532 14.8857 6.7437 14.8004C6.5706 14.7203 6.41191 14.6128 6.27393 14.482C5.97959 14.508 5.84041 14.2229 5.62151 14.0976L4.90913 13.6105C4.61522 13.6351 4.47578 13.3508 4.25693 13.2252C4.06146 13.0897 3.85894 12.9643 3.65021 12.8497C3.48957 12.7527 3.35637 12.617 3.26302 12.4554C3.16967 12.2938 3.11921 12.1114 3.11634 11.9253C3.11347 11.7392 3.15828 11.5554 3.24659 11.3911C3.33491 11.2267 3.46386 11.0871 3.62143 10.9853C5.22584 9.98427 6.83364 8.98963 8.43643 7.98555C10.6188 6.61838 12.7994 5.24786 14.9782 3.87399C16.5694 2.87337 18.1426 1.83643 19.7599 0.88831C20.4332 0.477858 21.2017 0.245153 21.992 0.212463C22.2006 0.110801 22.4296 0.230185 22.6394 0.141841C22.651 0.137549 22.6634 0.135633 22.6758 0.136208C22.6881 0.136783 22.7002 0.139838 22.7114 0.145186C22.7633 0.21478 22.8005 0.293992 22.8207 0.378099C22.841 0.462207 22.8439 0.549491 22.8294 0.634748C22.831 6.88172 22.8309 13.1287 22.8289 19.3757C22.8293 19.4479 22.8247 19.52 22.8152 19.5916C22.8097 19.6403 22.7924 19.687 22.7647 19.7277C22.7371 19.7684 22.7 19.8019 22.6566 19.8254C21.2547 20.514 19.9923 21.4715 18.6509 22.2768C18.6274 22.2902 18.603 22.3021 18.5779 22.3125C18.4144 22.3541 18.31 22.2602 18.2223 22.1283C18.0491 22.0484 17.8904 21.9409 17.7525 21.81C17.4582 21.8359 17.319 21.5508 17.1001 21.4255Z" fill="#0080FC"/>
<path d="M22.803 0.143324L23.3347 0.136475C23.4688 0.214026 23.6231 0.134636 23.7587 0.200925C25.4023 0.486854 26.7204 1.54246 28.1167 2.40177C30.4647 3.8468 32.7946 5.32671 35.1308 6.79438C37.3751 8.20431 39.6193 9.61438 41.8634 11.0246C42.0562 11.1623 42.2108 11.3459 42.3129 11.5584C42.3579 11.7578 42.3585 11.9646 42.3145 12.1643C42.169 12.4643 41.9311 12.7109 41.6349 12.8687C36.8454 15.9211 32.0574 18.9763 27.271 22.0343C27.1453 22.1145 27.0197 22.1948 26.8941 22.2752C25.9115 21.7496 24.9969 21.094 24.044 20.5116C23.7058 20.283 23.3525 20.0773 22.9863 19.8957C22.8577 19.8391 22.7367 19.7783 22.7584 19.5891C22.7596 13.2766 22.7605 6.96498 22.7612 0.65422C22.7314 0.483154 22.7458 0.307427 22.803 0.143324Z" fill="#006EC4"/>
<path d="M22.7898 19.7495C23.086 19.7901 23.3644 19.913 23.5927 20.1039C24.6195 20.7442 25.6439 21.389 26.6659 22.0384C26.751 22.1083 26.8274 22.1878 26.8937 22.2753C25.8676 22.9378 24.8416 23.6005 23.8157 24.2635C23.7145 24.329 23.6183 24.4037 23.5198 24.4741C23.4644 24.5753 23.3837 24.6608 23.2853 24.7224C23.187 24.7839 23.0743 24.8195 22.9581 24.8258C22.645 25.0261 22.3972 24.8085 22.1445 24.6651C21.9012 24.5271 21.6695 24.365 21.4327 24.2135C21.1885 24.2024 21.0613 23.9722 20.8713 23.8595L20.2394 23.4146C19.9742 23.3634 19.7399 23.2116 19.5866 22.9917L18.7125 22.4351C18.6692 22.4343 18.6278 22.4173 18.5967 22.3875C18.5656 22.3577 18.5471 22.3173 18.5449 22.2745C19.0557 21.8735 19.5964 21.5114 20.1625 21.1911C20.7623 20.7941 21.3714 20.4133 21.98 20.0322C22.1916 19.8648 22.4495 19.7646 22.7198 19.7448C22.7451 19.7106 22.7684 19.7138 22.7898 19.7495Z" fill="#00539A"/>
</g>
<defs>
<clipPath id="clip0_6222_7189">
<rect width="44.8355" height="53.2544" fill="white" transform="translate(0.360352 0.136108)"/>
</clipPath>
</defs>
</svg>
